<?xml version="1.0" encoding="UTF-8"?>
<svg xmlns="http://www.w3.org/2000/svg" viewBox="0 0 30.23 47.18">
  <defs>
    <style>
      .cls-1 {
        fill: none;
        stroke: #000;
        stroke-miterlimit: 10;
        stroke-width: .5px;
      }

      .cls-2 {
        fill: #222846;
      }

      .cls-3 {
        fill: #ecca98;
      }

      .cls-4 {
        fill: #5f8ffb;
      }
    </style>
  </defs>
  <g id="Layer_2" data-name="Layer 2">
    <path class="cls-3" d="M17.02,37.5c.59.33,1.25.31,1.85.01.28-.14.53-.36.75-.59.32-.32.62-.66.9-1.02.64-.81,1.21-1.65,1.67-2.57.18-.36.26-.75.15-1.16-.1-.35-.36-.73-.69-.9-.35-.18-.77-.28-1.16-.15-.36.12-.72.34-.9.69-.37.76-.82,1.48-1.33,2.15l.23-.3c-.37.48-.78,1-1.25,1.39l.3-.23c-.06.04-.12.08-.19.11l.36-.15c-.05.02-.09.03-.15.04l.4-.05h-.05c.13.02.27.04.4.05-.03,0-.06-.01-.09-.02l.36.15-.04-.03c-.34-.19-.78-.26-1.16-.15-.35.1-.73.36-.9.69-.38.71-.19,1.64.54,2.05h0Z"/>
    <path class="cls-3" d="M21.24,34.04c1.43-.8,2.83-1.62,4.1-2.66s2.23-2.4,3.25-3.68l-2.51-1.46c-.62,2.51-1.99,4.71-3.98,6.38-.53.44-1.1.83-1.63,1.27s-.96.93-1.48,1.34c-.47.36-1,.58-1.54.8-.79.33-1.48.68-2.15,1.22-.56.46-.48,1.24-.23,1.82.07.17.14.34.21.5.32.75,1.42.91,2.05.54.77-.45.86-1.3.54-2.05-.07-.17-.14-.34-.21-.5l-.23,1.82c.43-.35,1.03-.53,1.53-.75.8-.33,1.49-.72,2.15-1.28.56-.47,1.07-1.01,1.64-1.47s1.2-.9,1.76-1.39c2.2-1.95,3.76-4.61,4.47-7.45.16-.65-.11-1.35-.69-1.69-.53-.31-1.41-.28-1.82.23-.97,1.22-1.89,2.53-3.09,3.55-1.1.93-2.4,1.63-3.66,2.32-1.69.94-.18,3.53,1.51,2.59h0Z"/>
    <path class="cls-3" d="M18.74,35.21c-.19.43-.44.84-.73,1.21l.23-.3c-.32.41-.68.77-1.09,1.09l.3-.23c-.19.15-.39.29-.6.41-.33.19-.59.53-.69.9s-.05.84.15,1.16.51.6.9.69.8.06,1.16-.15c1.27-.76,2.35-1.91,2.96-3.26.11-.17.17-.36.18-.56.04-.2.04-.4-.03-.6-.1-.35-.36-.73-.69-.9-.35-.18-.77-.28-1.16-.15-.35.11-.74.34-.9.69h0Z"/>
    <path class="cls-4" d="M24.35,14.83c-1.35,1.11-2.7,2.21-4.05,3.32-1.21,1-2.38,2.02-3.28,3.32-1.79,2.61-1.78,5.93-1.67,8.96.03.74.55,1.38,1.3,1.47.66.08,1.54-.33,1.65-1.07.37-2.55,1.59-4.78,3.14-6.81.78-1.02,1.64-1.98,2.51-2.93.48-.53.98-1.05,1.47-1.57.21-.22.43-.44.64-.66.12-.13.25-.26.38-.38.11-.08.09-.07-.05,0l-1.5-1.5c.12,1.54.19,3.1.35,4.64.12,1.21.62,2.54,1.97,2.8,1.16.22,2.08-.68,1.85-1.85-.09-.46-.08-.9-.04-1.36.07-.77-.75-1.55-1.5-1.5-1.23.08-2.39-.02-3.58-.35-.8-.22-1.61.27-1.85,1.05-.86,2.84-2.43,5.36-4.56,7.42-1.27,1.22.34,3.1,1.82,2.36,1.34-.67,2.07-1.95,3.09-2.98.54-.54,1.13-1.03,1.73-1.5.31-.25.62-.49.97-.68.14-.08.25-.13.4-.18.21-.07.24.02.17-.03l-.69-.9.07.19v-.8l-.07.19.39-.66c-.85.89-1.97,1.56-3.05,2.12-.62.32-1.25.55-1.8.99s-.88.96-1.23,1.53c-1.09,1.78-3.35,2.42-3.88,4.62-.46,1.88,2.43,2.68,2.89.8.17-.69.84-1.12,1.38-1.53.9-.69,1.61-1.39,2.2-2.36.27-.44.47-.73.94-.97.58-.29,1.18-.55,1.74-.88.99-.58,2.06-1.27,2.85-2.11,1.06-1.11.49-2.8-.98-3.15-1.34-.32-2.65.34-3.68,1.12s-2.03,1.56-2.87,2.51c-.66.74-1.18,1.64-2.09,2.1l1.82,2.36c2.51-2.41,4.33-5.42,5.34-8.75l-1.85,1.05c1.43.39,2.9.56,4.38.46l-1.5-1.5c-.07.73,0,1.43.14,2.16l1.85-1.85.21.17c.11.23.14.26.08.1,0-.01-.07-.28-.07-.28-.07-.45-.07-.98-.11-1.45-.08-1.03-.15-2.05-.23-3.08-.06-.83-.64-1.47-1.5-1.5-1.66-.06-2.81,1.61-3.83,2.7-1.08,1.16-2.15,2.33-3.13,3.58-1.92,2.44-3.56,5.16-4.02,8.27l2.95.4c-.09-2.56-.25-5.47,1.39-7.63.81-1.06,1.91-1.9,2.93-2.74,1.27-1.04,2.53-2.08,3.8-3.11.63-.51.53-1.59,0-2.12-.62-.62-1.49-.52-2.12,0h0Z"/>
    <path class="cls-4" d="M16.24,35.73c1.93,0,1.93-3,0-3s-1.93,3,0,3h0Z"/>
    <path class="cls-2" d="M15.03,6c2.29,1.87,3.12,4.96,5.48,6.79l1.46-2.51c-.26-.11-.53-.35-.69-.58-.08-.11-.15-.28-.22-.41-.14-.29.08-.28,0-.06l-.39.66-.02.04-.76.2c-.33-.26-.43-.32-.3-.15.08.13.16.27.23.41.12.21.23.41.35.62.25.44.51.89.8,1.31.65.93,1.44,1.79,2.5,2.26v-2.59c-2.88,1.27-5.27,3.37-7.6,5.45l2.56,1.06c.02-3.92.1-7.84.23-11.76l-2.95.4c.65,2.56,1.26,5.12,1.84,7.69.25,1.12,1.74,1.43,2.51.66l1.06-1.05c1.39-1.38-.67-3.35-2.12-2.12-1.04.88-2.11,1.82-2.72,3.06-.68,1.4-1.02,2.99-1.46,4.47-.56,1.85,2.34,2.64,2.89.8.37-1.22.63-2.59,1.16-3.75.47-1.02,1.41-1.75,2.25-2.46l-2.12-2.12-1.06,1.05,2.51.66c-.58-2.57-1.19-5.14-1.84-7.69-.42-1.67-2.89-1.27-2.95.4-.13,3.92-.21,7.84-.23,11.76,0,1.36,1.62,1.9,2.56,1.06,2.15-1.92,4.33-3.81,7-4.98.98-.43.98-2.16,0-2.59-1.1-.49-1.65-1.48-2.23-2.49-.66-1.15-1.34-2.45-2.88-2.36-1.89.11-2.12,2.09-1.51,3.48.55,1.25,1.55,2.06,2.79,2.56,1.36.55,2.62-1.61,1.46-2.51-2.34-1.81-3.19-4.9-5.48-6.79-.63-.51-1.51-.61-2.12,0-.53.53-.63,1.61,0,2.12h0Z"/>
  </g>
  <g id="Layer_1" data-name="Layer 1">
    <path d="M16.42,46.13l.05-3.49c0-.41.58-.86.87-1.06l.89-.63c2.39-1.53,4.74-3.07,6.82-5.01l.58-.59.77-.92.71-.93.79-1.14.69-1.2.36-.78c1.57-3.4,1.72-9.03.33-12.52l-.62-1.55-.67-1.3-.81-1.39-.77-1.24-.74-1.01-.62-.76-.78-.88-1.07-1.12-1.87-1.83-2.66-2.47c-.62-.58-1.74-1.9-1.74-1.9,0,0-1.54-2.15-1.79-2.4-.09-.09.05,46.2.05,46.2h.01c.19-.13.42.21.65.17v-.08M16.13,46.21l.27-.08M16.11,9.3l.09-4.99c.33.19.48.36.73.6l.75.72.88.81.61.55,1.01.96,2.74,2.73.88,1.02.9,1.21c.17.22.32.45.42.7-2.5,1.13-4.65,2.61-6.4,4.67l-1.73,2.04c-.31.37-.54.77-.91,1.12l.03-12.12h0ZM28.49,26.3c-.2.79-.28,1.63-.62,2.36l-.29.63c-.26.55-.43,1.08-.75,1.57l-.83,1.28-.64.85-.81,1.07-.98,1.03c-1.65,1.48-3.43,2.72-5.3,3.9l-1.79,1.13c-.23-.44-.17-.56-.09-.87.21-.77.26-1.62.63-2.32.24-.45.41-.95.66-1.36l.81-1.29.76-1.02.68-.79.77-.82.57-.59c2.22-2.09,4.6-3.88,7.29-5.47.09.24,0,.45-.07.71h0ZM19,30.98l-.93,1.09-.79,1.03-.75,1.1-.68,1.21.15-7.81c.02-.86-.11-1.81.25-2.59l.7-1.52.73-1.25.82-1.15.71-.86,1.41-1.54c1.49-1.62,3.28-2.76,5.31-3.76.3.33.52.75.76,1.22l.42.81.73,1.92c.39.99.54,2.05.66,3.14.05.33.11.93.11,1.01l.07.7c-3.62,1.91-6.84,4.34-9.68,7.25h0Z"/>
    <path d="M13.8,46.09c0,.14-.02.89,0,.97s1.02-.26,1.21-.14l.38-.34S15.23-.09,15.14,0c-.25.24-1.38,1.82-1.8,2.41-.48.67-1.13,1.33-1.75,1.9l-2.67,2.47-1.88,1.83-1.07,1.12-.78.88-.62.76-.74,1.01-.77,1.24-.81,1.39-.67,1.3-.62,1.54c-1.39,3.48-1.25,9.11.32,12.52l.36.78.69,1.21.79,1.14.71.93.76.92.58.59c2.07,1.95,4.43,3.49,6.81,5.02l.89.63c.29.2.86.65.87,1.06l.05,3.03v.41M14.17,21.43c-.37-.35-.6-.75-.91-1.12l-1.73-2.04c-1.74-2.05-3.89-3.54-6.39-4.68.1-.25.25-.47.42-.7l.9-1.21.89-1.02,2.74-2.73,1.02-.96.61-.55.88-.81.75-.71c.25-.24.39-.41.73-.6l.08,4.99s.02,12.12.02,12.12ZM1.67,25.58c2.69,1.59,5.07,3.38,7.29,5.48l.57.59.76.82.68.79.76,1.02.81,1.29c.26.41.43.92.66,1.36.37.7.42,1.54.63,2.32.09.31.14.43-.09.87l-1.79-1.13c-1.87-1.18-3.65-2.43-5.3-3.91l-.98-1.03-.81-1.07-.64-.85-.83-1.28c-.32-.49-.49-1.02-.75-1.57l-.29-.63c-.34-.73-.41-1.57-.62-2.36-.07-.26-.16-.47-.07-.71h0ZM1.56,23.72l.07-.64c0-.08.09-1.02.11-1.06.13-1.08.27-2.14.66-3.14l.74-1.92.42-.81c.24-.47.46-.89.76-1.22,2.02,1,3.82,2.14,5.3,3.76l1.41,1.54.71.86.82,1.16.73,1.25.7,1.53c.35.78.23,1.73.25,2.59l.14,7.81-.68-1.21-.75-1.1-.79-1.03-.93-1.09c-2.84-2.91-6.05-5.35-9.67-7.27h.01Z"/>
    <path d="M14.71,23.86c.01,2.92.03,5.83.04,8.75,0,1.43-.04,2.87.04,4.3.04.64.15,1.26.26,1.9.1.55.16,1.11-.17,1.59-.37.54.51,1.05.88.51.74-1.07.21-2.36.09-3.53-.15-1.47-.07-2.96-.08-4.44l-.04-9.09c0-.66-1.03-.66-1.02,0h0Z"/>
    <path d="M14.7,38.46c-.46,1.18-.45,2.46-.35,3.7.11,1.38.24,2.75.35,4.13.05.65,1.08.66,1.02,0-.12-1.33-.24-2.66-.34-3.99-.1-1.2-.14-2.42.31-3.56.24-.61-.75-.88-.98-.27h0Z"/>
    <path class="cls-1" d="M13.79,46.92c.13,0,.93.08,1.59-.28s.82-.63.82-.63"/>
  </g>
</svg>